# This file is an example of a cube with 6 different colors
# Each face has a different color
# The cube is split into 6 different objects
# Each object has a different material

mtllib cube.mtl
o Cube

# Vertices
v 1.000000 -1.000000 -1.000000
v 1.000000 -1.000000 1.000000
v -1.000000 -1.000000 1.000000
v -1.000000 -1.000000 -1.000000
v 1.000000 1.000000 -0.999999
v 0.999999 1.000000 1.000001
v -1.000000 1.000000 1.000000
v -1.000000 1.000000 -1.000000

# Textures
vt 1.000000 0.333333
vt 1.000000 0.666667
vt 0.666667 0.666667
vt 0.666667 0.333333
vt 0.666667 0.000000
vt 0.000000 0.333333
vt 0.000000 0.000000
vt 0.333333 0.000000
vt 0.333333 1.000000
vt 0.000000 1.000000
vt 0.000000 0.666667
vt 0.333333 0.333333
vt 0.333333 0.666667
vt 1.000000 0.000000

# Normals
vn 0.000000 -1.000000 0.000000
vn 0.000000 1.000000 0.000000
vn 1.000000 0.000000 0.000000
vn -0.000000 0.000000 1.000000
vn -1.000000 -0.000000 -0.000000
vn 0.000000 0.000000 -1.000000

# Faces
g Cube_Red
usemtl Red
f 2/1/1 3/2/1 4/3/1
f 8/1/2 7/4/2 6/5/2

g Cube_Blue
usemtl Blue
f 5/6/3 6/7/3 2/8/3
f 6/8/4 7/5/4 3/4/4

g Cube_Green
usemtl Green
f 3/9/5 7/10/5 8/11/5
f 1/12/6 4/13/6 8/11/6

g Cube_Purple
usemtl Purple
f 1/4/1 2/1/1 4/3/1
f 5/14/2 8/1/2 6/5/2

g Cube_Yellow
usemtl Yellow
f 1/12/3 5/6/3 2/8/3
f 2/12/4 6/8/4 3/4/4

g Cube_Teal
usemtl Teal
f 4/13/5 3/9/5 8/11/5
f 5/6/6 1/12/6 8/11/6